<svg width="42" height="34" viewBox="0 0 42 34" fill="none" xmlns="http://www.w3.org/2000/svg">
  <path d="M35.5696 0H6.42979C4.77372 0 3.18547 0.663748 2.01444 1.84523C0.843421 3.02671 0.185547 4.62914 0.185547 6.3V27.3C0.185547 28.9709 0.843421 30.5733 2.01444 31.7548C3.18547 32.9363 4.77372 33.6 6.42979 33.6H35.5696C37.2257 33.6 38.8139 32.9363 39.985 31.7548C41.156 30.5733 41.8139 28.9709 41.8139 27.3V6.3C41.8139 4.62914 41.156 3.02671 39.985 1.84523C38.8139 0.663748 37.2257 0 35.5696 0ZM6.42979 29.4C5.87777 29.4 5.34835 29.1788 4.95801 28.7849C4.56767 28.3911 4.34838 27.857 4.34838 27.3V22.218L11.2171 15.309C11.6061 14.9242 12.1292 14.7087 12.674 14.7087C13.2189 14.7087 13.742 14.9242 14.131 15.309L28.0973 29.4H6.42979ZM37.651 27.3C37.651 27.857 37.4317 28.3911 37.0414 28.7849C36.6511 29.1788 36.1216 29.4 35.5696 29.4H33.9669L26.0367 21.357L27.8684 19.509C28.2575 19.1242 28.7806 18.9087 29.3254 18.9087C29.8702 18.9087 30.3933 19.1242 30.7824 19.509L37.651 26.418V27.3ZM37.651 20.496L33.738 16.569C32.5517 15.4191 30.9704 14.7769 29.3254 14.7769C27.6803 14.7769 26.0991 15.4191 24.9128 16.569L23.0811 18.417L17.0866 12.369C15.9004 11.2191 14.3191 10.5769 12.674 10.5769C11.029 10.5769 9.44773 11.2191 8.26144 12.369L4.34838 16.296V6.3C4.34838 5.74304 4.56767 5.2089 4.95801 4.81508C5.34835 4.42125 5.87777 4.2 6.42979 4.2H35.5696C36.1216 4.2 36.6511 4.42125 37.0414 4.81508C37.4317 5.2089 37.651 5.74304 37.651 6.3V20.496Z" fill="#BDBDBD"/>
  </svg>
  