<svg width="42" height="34" viewBox="0 0 42 34" fill="none" xmlns="http://www.w3.org/2000/svg">
  <path d="M35.7 0H6.3C4.62914 0 3.02671 0.663748 1.84523 1.84523C0.663748 3.02671 0 4.62914 0 6.3V27.3C0 28.9709 0.663748 30.5733 1.84523 31.7548C3.02671 32.9363 4.62914 33.6 6.3 33.6H35.7C37.3709 33.6 38.9733 32.9363 40.1548 31.7548C41.3363 30.5733 42 28.9709 42 27.3V6.3C42 4.62914 41.3363 3.02671 40.1548 1.84523C38.9733 0.663748 37.3709 0 35.7 0ZM6.3 29.4C5.74304 29.4 5.2089 29.1788 4.81508 28.7849C4.42125 28.3911 4.2 27.857 4.2 27.3V22.218L11.13 15.309C11.5226 14.9242 12.0503 14.7087 12.6 14.7087C13.1497 14.7087 13.6774 14.9242 14.07 15.309L28.161 29.4H6.3ZM37.8 27.3C37.8 27.857 37.5788 28.3911 37.1849 28.7849C36.7911 29.1788 36.257 29.4 35.7 29.4H34.083L26.082 21.357L27.93 19.509C28.3225 19.1242 28.8503 18.9087 29.4 18.9087C29.9497 18.9087 30.4774 19.1242 30.87 19.509L37.8 26.418V27.3ZM37.8 20.496L33.852 16.569C32.6551 15.4191 31.0597 14.7769 29.4 14.7769C27.7403 14.7769 26.1449 15.4191 24.948 16.569L23.1 18.417L17.052 12.369C15.8551 11.2191 14.2597 10.5769 12.6 10.5769C10.9403 10.5769 9.34488 11.2191 8.148 12.369L4.2 16.296V6.3C4.2 5.74304 4.42125 5.2089 4.81508 4.81508C5.2089 4.42125 5.74304 4.2 6.3 4.2H35.7C36.257 4.2 36.7911 4.42125 37.1849 4.81508C37.5788 5.2089 37.8 5.74304 37.8 6.3V20.496Z" fill="#E0E0E0"/>
  </svg>
  