<svg width="240" height="377" viewBox="0 0 240 377" fill="none" xmlns="http://www.w3.org/2000/svg">
  <path d="M3.70327 376.545C2.23663 375.937 1.06348 374.763 0.455284 373.297L0.917148 373.105C0.648515 372.457 0.5 371.747 0.5 371V367.958H0V361.875H0.5V355.792H0V349.708H0.5V343.625H0V337.542H0.5V331.458H0V325.375H0.5V319.292H0V313.208H0.5V307.125H0V301.042H0.5V294.958H0V288.875H0.5V282.792H0V276.708H0.5V270.625H0V264.542H0.5V258.458H0V252.375H0.5V246.292H0V240.208H0.5V234.125H0V228.042H0.5V221.958H0V215.875H0.5V209.792H0V203.708H0.5V197.625H0V191.542H0.5V185.458H0V179.375H0.5V173.292H0V167.208H0.5V161.125H0V155.042H0.5V148.958H0V142.875H0.5V136.792H0V130.708H0.5V124.625H0V118.542H0.5V112.458H0V106.375H0.5V100.292H0V94.2083H0.5V88.125H0V82.0417H0.5V75.9583H0V69.875H0.5V63.7917H0V57.7083H0.5V51.625H0V45.5417H0.5V39.4583H0V33.375H0.5V27.2917H0V21.2083H0.5V15.125H0V9.04166H0.5V5.99999C0.5 5.25332 0.648515 4.54259 0.917146 3.89479L0.455283 3.70327C1.06348 2.23662 2.23663 1.06347 3.70327 0.455281L3.8948 0.917144C4.5426 0.648514 5.25333 0.5 6 0.5H9V0H15V0.5H21V0H27V0.5H33V0H39V0.5H45V0H51V0.5H57V0H63V0.5H69V0H75V0.5H81V0H87V0.5H93V0H99V0.5H105V0H111V0.5H117V0H123V0.5H129V0H135V0.5H141V0H147V0.5H153V0H159V0.5H165V0H171V0.5H177V0H183V0.5H189V0H195V0.5H201V0H207V0.5H213V0H219V0.5H225V0H231V0.5H234C234.747 0.5 235.457 0.648514 236.105 0.917145L236.297 0.455279C237.763 1.06347 238.937 2.23663 239.545 3.70327L239.083 3.8948C239.351 4.5426 239.5 5.25332 239.5 6V9.04156H240V15.1249H239.5V21.2083H240V27.2916H239.5V33.3749H240V39.4583H239.5V45.5416H240V51.625H239.5V57.7083H240V63.7917H239.5V69.875H240V75.9584H239.5V82.0417H240V88.125H239.5V94.2084H240V100.292H239.5V106.375H240V112.458H239.5V118.542H240V124.625H239.5V130.708H240V136.792H239.5V142.875H240V148.958H239.5V155.042H240V161.125H239.5V167.208H240V173.292H239.5V179.375H240V185.458H239.5V191.542H240V197.625H239.5V203.708H240V209.792H239.5V215.875H240V221.958H239.5V228.042H240V234.125H239.5V240.208H240V246.292H239.5V252.375H240V258.458H239.5V264.542H240V270.625H239.5V276.708H240V282.792H239.5V288.875H240V294.958H239.5V301.042H240V307.125H239.5V313.208H240V319.292H239.5V325.375H240V331.458H239.5V337.542H240V343.625H239.5V349.708H240V355.792H239.5V361.875H240V367.958H239.5V371C239.5 371.747 239.351 372.457 239.083 373.105L239.545 373.297C238.937 374.763 237.763 375.937 236.297 376.545L236.105 376.083C235.457 376.351 234.747 376.5 234 376.5H231V377H225V376.5H219V377H213V376.5H207V377H201V376.5H195V377H189V376.5H183V377H177V376.5H171V377H165V376.5H159V377H153V376.5H147V377H141V376.5H135V377H129V376.5H123V377H117V376.5H111V377H105V376.5H99V377H93V376.5H87V377H81V376.5H75V377H69V376.5H63V377H57V376.5H51V377H45V376.5H39V377H33V376.5H27V377H21V376.5H15V377H8.99999V376.5H5.99999C5.25332 376.5 4.5426 376.351 3.8948 376.083L3.70327 376.545Z" fill="#FCFBFF" stroke="#CBCBCB" stroke-dasharray="6 6"/>
  </svg>
  