<svg
  width="32"
  height="34"
  viewBox="0 0 32 34"
  fill="none"
  xmlns="http://www.w3.org/2000/svg"
>
  <path
    d="M5.83333 15.3333L15 0.333328L24.1667 15.3333H5.83333ZM24.1667 33.6667C22.0833 33.6667 20.3122 32.9378 18.8533 31.48C17.3956 30.0211 16.6667 28.25 16.6667 26.1667C16.6667 24.0833 17.3956 22.3122 18.8533 20.8533C20.3122 19.3955 22.0833 18.6667 24.1667 18.6667C26.25 18.6667 28.0211 19.3955 29.48 20.8533C30.9378 22.3122 31.6667 24.0833 31.6667 26.1667C31.6667 28.25 30.9378 30.0211 29.48 31.48C28.0211 32.9378 26.25 33.6667 24.1667 33.6667ZM0 32.8333V19.5H13.3333V32.8333H0ZM24.1667 30.3333C25.3333 30.3333 26.3194 29.9305 27.125 29.125C27.9306 28.3194 28.3333 27.3333 28.3333 26.1667C28.3333 25 27.9306 24.0139 27.125 23.2083C26.3194 22.4028 25.3333 22 24.1667 22C23 22 22.0139 22.4028 21.2083 23.2083C20.4028 24.0139 20 25 20 26.1667C20 27.3333 20.4028 28.3194 21.2083 29.125C22.0139 29.9305 23 30.3333 24.1667 30.3333ZM3.33333 29.5H10V22.8333H3.33333V29.5ZM11.75 12H18.25L15 6.74999L11.75 12Z"
    fill="#008060"
  />
</svg>
