<svg width="18" height="18" viewBox="0 0 18 18" fill="none" xmlns="http://www.w3.org/2000/svg">
  <path d="M8.16675 13.1666H9.83341V9.83329H13.1667V8.16663H9.83341V4.83329H8.16675V8.16663H4.83341V9.83329H8.16675V13.1666ZM9.00008 17.3333C7.8473 17.3333 6.76397 17.1144 5.75008 16.6766C4.73619 16.2394 3.85425 15.6458 3.10425 14.8958C2.35425 14.1458 1.76064 13.2638 1.32341 12.25C0.885637 11.2361 0.666748 10.1527 0.666748 8.99996C0.666748 7.84718 0.885637 6.76385 1.32341 5.74996C1.76064 4.73607 2.35425 3.85413 3.10425 3.10413C3.85425 2.35413 4.73619 1.76024 5.75008 1.32246C6.76397 0.885237 7.8473 0.666626 9.00008 0.666626C10.1529 0.666626 11.2362 0.885237 12.2501 1.32246C13.264 1.76024 14.1459 2.35413 14.8959 3.10413C15.6459 3.85413 16.2395 4.73607 16.6767 5.74996C17.1145 6.76385 17.3334 7.84718 17.3334 8.99996C17.3334 10.1527 17.1145 11.2361 16.6767 12.25C16.2395 13.2638 15.6459 14.1458 14.8959 14.8958C14.1459 15.6458 13.264 16.2394 12.2501 16.6766C11.2362 17.1144 10.1529 17.3333 9.00008 17.3333ZM9.00008 15.6666C10.8612 15.6666 12.4376 15.0208 13.7292 13.7291C15.0209 12.4375 15.6667 10.8611 15.6667 8.99996C15.6667 7.13885 15.0209 5.56246 13.7292 4.27079C12.4376 2.97913 10.8612 2.33329 9.00008 2.33329C7.13897 2.33329 5.56258 2.97913 4.27091 4.27079C2.97925 5.56246 2.33341 7.13885 2.33341 8.99996C2.33341 10.8611 2.97925 12.4375 4.27091 13.7291C5.56258 15.0208 7.13897 15.6666 9.00008 15.6666Z" fill="#008060"/>
  </svg>
  