<svg width="16" height="16" viewBox="0 0 16 16" fill="none" xmlns="http://www.w3.org/2000/svg">
  <mask id="mask0_833_10075" style="mask-type:alpha" maskUnits="userSpaceOnUse" x="0" y="0" width="16" height="16">
  <rect width="16" height="16" fill="#D9D9D9"/>
  </mask>
  <g mask="url(#mask0_833_10075)">
  <path d="M3.33333 14.6667C2.96667 14.6667 2.65267 14.5362 2.39133 14.2753C2.13044 14.014 2 13.7 2 13.3333V3.99999H3.33333V13.3333H10.6667V14.6667H3.33333ZM6 12C5.63333 12 5.31956 11.8695 5.05867 11.6087C4.79733 11.3473 4.66667 11.0333 4.66667 10.6667V2.66666C4.66667 2.29999 4.79733 1.98599 5.05867 1.72466C5.31956 1.46377 5.63333 1.33333 6 1.33333H12C12.3667 1.33333 12.6807 1.46377 12.942 1.72466C13.2029 1.98599 13.3333 2.29999 13.3333 2.66666V10.6667C13.3333 11.0333 13.2029 11.3473 12.942 11.6087C12.6807 11.8695 12.3667 12 12 12H6ZM6 10.6667H12V2.66666H6V10.6667Z" fill="white"/>
  </g>
  </svg>
  