<svg width="12" height="15" viewBox="0 0 12 15" fill="none" xmlns="http://www.w3.org/2000/svg">
  <path d="M0.799988 14V12.5556H10.9111V14H0.799988ZM5.85554 11.1111C4.6398 11.1111 3.61352 10.6927 2.77671 9.85589C1.94038 9.01956 1.52221 7.99352 1.52221 6.77778V1H3.32777V6.77778C3.32777 7.48796 3.5714 8.08693 4.05865 8.57467C4.5464 9.06193 5.14536 9.30556 5.85554 9.30556C6.56573 9.30556 7.16469 9.06193 7.65243 8.57467C8.13969 8.08693 8.38332 7.48796 8.38332 6.77778V1H10.1889V6.77778C10.1889 7.99352 9.77047 9.01956 8.93365 9.85589C8.09732 10.6927 7.07128 11.1111 5.85554 11.1111Z" fill="#051922" stroke="#051922" stroke-width="0.5"/>
  </svg>
  