<svg width="16" height="16" viewBox="0 0 16 16" fill="none" xmlns="http://www.w3.org/2000/svg">
  <mask id="mask0_1075_14649" style="mask-type:alpha" maskUnits="userSpaceOnUse" x="0" y="0" width="16" height="16">
  <rect x="16" y="16" width="16" height="16" transform="rotate(-180 16 16)" fill="#D9D9D9"/>
  </mask>
  <g mask="url(#mask0_1075_14649)">
  <path d="M8.75004 3.13332L13.15 7.53332C13.2167 7.59999 13.264 7.67221 13.292 7.74999C13.3196 7.82776 13.3334 7.9111 13.3334 7.99999C13.3334 8.08887 13.3196 8.17221 13.292 8.24999C13.264 8.32776 13.2167 8.39999 13.15 8.46665L8.75004 12.8667C8.62782 12.9889 8.47515 13.0529 8.29204 13.0587C8.10848 13.064 7.95004 13 7.81671 12.8667C7.68337 12.7444 7.61382 12.5918 7.60804 12.4087C7.60271 12.2251 7.66671 12.0667 7.80004 11.9333L11.0667 8.66665H3.61671C3.42782 8.66665 3.26937 8.60287 3.14137 8.47532C3.01382 8.34732 2.95004 8.18887 2.95004 7.99999C2.95004 7.8111 3.01382 7.65287 3.14137 7.52532C3.26937 7.39732 3.42782 7.33332 3.61671 7.33332L11.0667 7.33332L7.80004 4.06665C7.67782 3.94443 7.61382 3.78887 7.60804 3.59999C7.60271 3.4111 7.66671 3.25554 7.80004 3.13332C7.92226 2.99999 8.07782 2.93332 8.26671 2.93332C8.4556 2.93332 8.61671 2.99999 8.75004 3.13332Z" fill="#051922"/>
  </g>
  </svg>
  