<svg width="16" height="16" viewBox="0 0 16 16" fill="none" xmlns="http://www.w3.org/2000/svg">
  <path d="M11.2 5.6H15.2C15.4122 5.6 15.6157 5.51571 15.7657 5.36569C15.9157 5.21566 16 5.01217 16 4.8C16 4.58783 15.9157 4.38434 15.7657 4.23431C15.6157 4.08429 15.4122 4 15.2 4H12V0.8C12 0.587827 11.9157 0.384344 11.7657 0.234315C11.6157 0.0842854 11.4122 0 11.2 0C10.9878 0 10.7843 0.0842854 10.6343 0.234315C10.4843 0.384344 10.4 0.587827 10.4 0.8V4.8C10.4 5.01217 10.4843 5.21566 10.6343 5.36569C10.7843 5.51571 10.9878 5.6 11.2 5.6ZM4.8 10.4H0.8C0.587827 10.4 0.384344 10.4843 0.234315 10.6343C0.0842854 10.7843 0 10.9878 0 11.2C0 11.4122 0.0842854 11.6157 0.234315 11.7657C0.384344 11.9157 0.587827 12 0.8 12H4V15.2C4 15.4122 4.08429 15.6157 4.23431 15.7657C4.38434 15.9157 4.58783 16 4.8 16C5.01217 16 5.21566 15.9157 5.36569 15.7657C5.51571 15.6157 5.6 15.4122 5.6 15.2V11.2C5.6 10.9878 5.51571 10.7843 5.36569 10.6343C5.21566 10.4843 5.01217 10.4 4.8 10.4ZM4.8 0C4.58783 0 4.38434 0.0842854 4.23431 0.234315C4.08429 0.384344 4 0.587827 4 0.8V4H0.8C0.587827 4 0.384344 4.08429 0.234315 4.23431C0.0842854 4.38434 0 4.58783 0 4.8C0 5.01217 0.0842854 5.21566 0.234315 5.36569C0.384344 5.51571 0.587827 5.6 0.8 5.6H4.8C5.01217 5.6 5.21566 5.51571 5.36569 5.36569C5.51571 5.21566 5.6 5.01217 5.6 4.8V0.8C5.6 0.587827 5.51571 0.384344 5.36569 0.234315C5.21566 0.0842854 5.01217 0 4.8 0ZM15.2 10.4H11.2C10.9878 10.4 10.7843 10.4843 10.6343 10.6343C10.4843 10.7843 10.4 10.9878 10.4 11.2V15.2C10.4 15.4122 10.4843 15.6157 10.6343 15.7657C10.7843 15.9157 10.9878 16 11.2 16C11.4122 16 11.6157 15.9157 11.7657 15.7657C11.9157 15.6157 12 15.4122 12 15.2V12H15.2C15.4122 12 15.6157 11.9157 15.7657 11.7657C15.9157 11.6157 16 11.4122 16 11.2C16 10.9878 15.9157 10.7843 15.7657 10.6343C15.6157 10.4843 15.4122 10.4 15.2 10.4Z" fill="#051922"/>
  <path d="M6.4 7.2C6.4 6.75817 6.75817 6.4 7.2 6.4H8.8C9.24183 6.4 9.6 6.75817 9.6 7.2V8.8C9.6 9.24183 9.24183 9.6 8.8 9.6H7.2C6.75817 9.6 6.4 9.24183 6.4 8.8V7.2Z" fill="#051922"/>
  </svg>
  