<svg width="14" height="16" viewBox="0 0 14 16" fill="none" xmlns="http://www.w3.org/2000/svg">
  <path d="M5.44444 12.4444C5.65072 12.4444 5.84855 12.3625 5.99442 12.2166C6.14028 12.0708 6.22222 11.8729 6.22222 11.6667V7C6.22222 6.79372 6.14028 6.59589 5.99442 6.45003C5.84855 6.30417 5.65072 6.22222 5.44444 6.22222C5.23816 6.22222 5.04033 6.30417 4.89447 6.45003C4.74861 6.59589 4.66667 6.79372 4.66667 7V11.6667C4.66667 11.8729 4.74861 12.0708 4.89447 12.2166C5.04033 12.3625 5.23816 12.4444 5.44444 12.4444ZM13.2222 3.11111H10.1111V2.33333C10.1111 1.71449 9.86528 1.121 9.42769 0.683418C8.99011 0.245833 8.39662 0 7.77778 0H6.22222C5.60338 0 5.00989 0.245833 4.57231 0.683418C4.13472 1.121 3.88889 1.71449 3.88889 2.33333V3.11111H0.777778C0.571498 3.11111 0.373667 3.19306 0.227806 3.33892C0.0819442 3.48478 0 3.68261 0 3.88889C0 4.09517 0.0819442 4.293 0.227806 4.43886C0.373667 4.58472 0.571498 4.66667 0.777778 4.66667H1.55556V13.2222C1.55556 13.8411 1.80139 14.4346 2.23897 14.8721C2.67656 15.3097 3.27005 15.5556 3.88889 15.5556H10.1111C10.7299 15.5556 11.3234 15.3097 11.761 14.8721C12.1986 14.4346 12.4444 13.8411 12.4444 13.2222V4.66667H13.2222C13.4285 4.66667 13.6263 4.58472 13.7722 4.43886C13.9181 4.293 14 4.09517 14 3.88889C14 3.68261 13.9181 3.48478 13.7722 3.33892C13.6263 3.19306 13.4285 3.11111 13.2222 3.11111ZM5.44444 2.33333C5.44444 2.12705 5.52639 1.92922 5.67225 1.78336C5.81811 1.6375 6.01594 1.55556 6.22222 1.55556H7.77778C7.98406 1.55556 8.18189 1.6375 8.32775 1.78336C8.47361 1.92922 8.55556 2.12705 8.55556 2.33333V3.11111H5.44444V2.33333ZM10.8889 13.2222C10.8889 13.4285 10.8069 13.6263 10.6611 13.7722C10.5152 13.9181 10.3174 14 10.1111 14H3.88889C3.68261 14 3.48478 13.9181 3.33892 13.7722C3.19306 13.6263 3.11111 13.4285 3.11111 13.2222V4.66667H10.8889V13.2222ZM8.55556 12.4444C8.76184 12.4444 8.95967 12.3625 9.10553 12.2166C9.25139 12.0708 9.33333 11.8729 9.33333 11.6667V7C9.33333 6.79372 9.25139 6.59589 9.10553 6.45003C8.95967 6.30417 8.76184 6.22222 8.55556 6.22222C8.34928 6.22222 8.15145 6.30417 8.00558 6.45003C7.85972 6.59589 7.77778 6.79372 7.77778 7V11.6667C7.77778 11.8729 7.85972 12.0708 8.00558 12.2166C8.15145 12.3625 8.34928 12.4444 8.55556 12.4444Z" fill="#051922"/>
  </svg>
  