<svg width="14" height="14" viewBox="0 0 14 14" fill="none" xmlns="http://www.w3.org/2000/svg">
  <path d="M6.83146 14C6.71161 14 6.59925 13.9811 6.49438 13.9434C6.38951 13.9062 6.29213 13.8427 6.20225 13.7528L0.269663 7.82022C0.0898874 7.64045 0 7.42682 0 7.17933C0 6.93243 0.0898874 6.7191 0.269663 6.53933C0.449438 6.35955 0.659176 6.26966 0.898876 6.26966C1.13858 6.26966 1.34831 6.35955 1.52809 6.53933L5.93258 10.9438V0.876404C5.93258 0.621723 6.01888 0.411985 6.19146 0.247191C6.36344 0.0823971 6.57678 0 6.83146 0C7.08614 0 7.29977 0.0859927 7.47236 0.257978C7.64434 0.430562 7.73034 0.644195 7.73034 0.898876V10.9438L12.1348 6.53933C12.3146 6.35955 12.5243 6.26966 12.764 6.26966C13.0037 6.26966 13.2135 6.35955 13.3933 6.53933C13.573 6.7191 13.6629 6.93243 13.6629 7.17933C13.6629 7.42682 13.573 7.64045 13.3933 7.82022L7.46067 13.7528C7.37079 13.8427 7.27341 13.9062 7.16854 13.9434C7.06367 13.9811 6.95131 14 6.83146 14Z" fill="#1C1B1F"/>
  </svg>
  