<svg width="14" height="14" viewBox="0 0 14 14" fill="none" xmlns="http://www.w3.org/2000/svg">
  <path d="M6.83146 14C6.57678 14 6.36345 13.9137 6.19146 13.7411C6.01888 13.5691 5.93258 13.3558 5.93258 13.1011V3.05618L1.55056 7.4382C1.37079 7.61798 1.15715 7.70787 0.909663 7.70787C0.662772 7.70787 0.449438 7.61798 0.269663 7.4382C0.0898874 7.25843 0 7.04869 0 6.80899C0 6.56929 0.0898874 6.35955 0.269663 6.17978L6.20225 0.247191C6.29213 0.157303 6.38951 0.093483 6.49438 0.0557302C6.59925 0.0185766 6.71161 0 6.83146 0C6.95131 0 7.06756 0.0185766 7.18022 0.0557302C7.29228 0.093483 7.38577 0.157303 7.46067 0.247191L13.3933 6.17978C13.573 6.35955 13.6629 6.56929 13.6629 6.80899C13.6629 7.04869 13.573 7.25843 13.3933 7.4382C13.2135 7.61798 12.9999 7.70787 12.7524 7.70787C12.5055 7.70787 12.2921 7.61798 12.1124 7.4382L7.73034 3.05618V13.1011C7.73034 13.3558 7.64434 13.5691 7.47236 13.7411C7.29977 13.9137 7.08614 14 6.83146 14Z" fill="#1C1B1F"/>
  </svg>
  