<svg width="11" height="11" viewBox="0 0 11 11" fill="none" xmlns="http://www.w3.org/2000/svg">
<path d="M9.35 0H1.65C1.21239 0 0.792709 0.173839 0.483274 0.483274C0.173839 0.792709 9.94829e-08 1.21239 9.94829e-08 1.65V2.2935C-7.8764e-05 2.52062 0.0467315 2.74531 0.1375 2.9535V2.9865C0.215204 3.16303 0.325266 3.32346 0.462 3.4595L3.85 6.8255V10.45C3.84981 10.5435 3.87345 10.6354 3.91868 10.7172C3.96391 10.799 4.02924 10.868 4.1085 10.9175C4.19603 10.9717 4.29703 11.0003 4.4 11C4.4861 10.9995 4.57087 10.9788 4.6475 10.9395L6.8475 9.8395C6.9382 9.79379 7.01448 9.72386 7.06787 9.63746C7.12127 9.55106 7.14969 9.45156 7.15 9.35V6.8255L10.516 3.4595C10.6527 3.32346 10.7628 3.16303 10.8405 2.9865V2.9535C10.9388 2.74694 10.9932 2.52218 11 2.2935V1.65C11 1.21239 10.8262 0.792709 10.5167 0.483274C10.2073 0.173839 9.78761 0 9.35 0ZM6.2095 6.2095C6.15853 6.26089 6.1182 6.32184 6.09083 6.38885C6.06346 6.45586 6.04958 6.52761 6.05 6.6V9.009L4.95 9.559V6.6C4.95042 6.52761 4.93654 6.45586 4.90917 6.38885C4.8818 6.32184 4.84147 6.26089 4.7905 6.2095L1.8755 3.3H9.1245L6.2095 6.2095ZM9.9 2.2H1.1V1.65C1.1 1.50413 1.15795 1.36424 1.26109 1.26109C1.36424 1.15795 1.50413 1.1 1.65 1.1H9.35C9.49587 1.1 9.63576 1.15795 9.73891 1.26109C9.84205 1.36424 9.9 1.50413 9.9 1.65V2.2Z" fill="black"/>
</svg>
