<svg width="17" height="18" viewBox="0 0 17 18" fill="white" xmlns="http://www.w3.org/2000/svg">
  <path d="M14.7218 5.99832L5.14731 0.458317C4.62922 0.156477 4.04119 -0.00164499 3.44292 1.29041e-05C2.84466 0.0016708 2.25749 0.163049 1.74105 0.467756C1.22462 0.772464 0.797308 1.20964 0.502531 1.73489C0.207754 2.26014 0.05601 2.85475 0.0627128 3.45832V14.5783C0.0627128 15.4854 0.419844 16.3552 1.05554 16.9966C1.69124 17.638 2.55343 17.9983 3.45245 17.9983C4.04757 17.9973 4.632 17.8387 5.14731 17.5383L14.7218 11.9983C15.2363 11.6979 15.6634 11.2663 15.9604 10.7468C16.2573 10.2272 16.4136 9.63804 16.4136 9.03832C16.4136 8.43859 16.2573 7.84941 15.9604 7.32988C15.6634 6.81035 15.2363 6.37873 14.7218 6.07832V5.99832ZM13.7307 10.1883L4.15616 15.8083C3.94157 15.931 3.69911 15.9955 3.45245 15.9955C3.20578 15.9955 2.96333 15.931 2.74873 15.8083C2.53474 15.6837 2.35704 15.5044 2.23351 15.2885C2.10998 15.0725 2.04497 14.8276 2.04501 14.5783V3.41832C2.04497 3.16901 2.10998 2.92409 2.23351 2.70818C2.35704 2.49226 2.53474 2.31297 2.74873 2.18832C2.96421 2.06747 3.20595 2.00221 3.45245 1.99832C3.69878 2.00342 3.94023 2.06861 4.15616 2.18832L13.7307 7.76832C13.9447 7.89292 14.1225 8.07219 14.2461 8.28811C14.3697 8.50402 14.4348 8.74897 14.4348 8.99832C14.4348 9.24766 14.3697 9.49261 14.2461 9.70853C14.1225 9.92445 13.9447 10.1037 13.7307 10.2283V10.1883Z" fill="white"/>
  </svg>
  