<svg width="15" height="15" viewBox="0 0 15 15" fill="none" xmlns="http://www.w3.org/2000/svg">
  <path d="M6.49997 1C6.49997 0.447715 6.94768 0 7.49997 0C8.05225 0 8.49997 0.447715 8.49997 1V14C8.49997 14.5523 8.05225 15 7.49997 15C6.94768 15 6.49997 14.5523 6.49997 14V1Z" fill="#FCFBFF"/>
  <path d="M1 8.50004C0.447715 8.50004 2.41411e-08 8.05232 0 7.50004C-2.41411e-08 6.94775 0.447715 6.50004 1 6.50004L14 6.50004C14.5523 6.50004 15 6.94775 15 7.50004C15 8.05232 14.5523 8.50004 14 8.50004L1 8.50004Z" fill="#FCFBFF"/>
  </svg>
  