<svg width="16" height="18" viewBox="0 0 16 18" fill="none" xmlns="http://www.w3.org/2000/svg">
  <path d="M2.16667 17.3333C1.70833 17.3333 1.31583 17.1703 0.989167 16.8442C0.663055 16.5175 0.5 16.125 0.5 15.6667V4.00001C0.5 3.54167 0.663055 3.14945 0.989167 2.82334C1.31583 2.49667 1.70833 2.33334 2.16667 2.33334H3V0.666672H4.66667V2.33334H11.3333V0.666672H13V2.33334H13.8333C14.2917 2.33334 14.6842 2.49667 15.0108 2.82334C15.3369 3.14945 15.5 3.54167 15.5 4.00001V15.6667C15.5 16.125 15.3369 16.5175 15.0108 16.8442C14.6842 17.1703 14.2917 17.3333 13.8333 17.3333H2.16667ZM2.16667 15.6667H13.8333V7.33334H2.16667V15.6667ZM2.16667 5.66667H13.8333V4.00001H2.16667V5.66667ZM8 10.6667C7.76389 10.6667 7.56611 10.5867 7.40667 10.4267C7.24667 10.2672 7.16667 10.0695 7.16667 9.83334C7.16667 9.59723 7.24667 9.39917 7.40667 9.23917C7.56611 9.07973 7.76389 9.00001 8 9.00001C8.23611 9.00001 8.43417 9.07973 8.59417 9.23917C8.75361 9.39917 8.83333 9.59723 8.83333 9.83334C8.83333 10.0695 8.75361 10.2672 8.59417 10.4267C8.43417 10.5867 8.23611 10.6667 8 10.6667ZM4.66667 10.6667C4.43056 10.6667 4.2325 10.5867 4.0725 10.4267C3.91306 10.2672 3.83333 10.0695 3.83333 9.83334C3.83333 9.59723 3.91306 9.39917 4.0725 9.23917C4.2325 9.07973 4.43056 9.00001 4.66667 9.00001C4.90278 9.00001 5.10083 9.07973 5.26083 9.23917C5.42028 9.39917 5.5 9.59723 5.5 9.83334C5.5 10.0695 5.42028 10.2672 5.26083 10.4267C5.10083 10.5867 4.90278 10.6667 4.66667 10.6667ZM11.3333 10.6667C11.0972 10.6667 10.8994 10.5867 10.74 10.4267C10.58 10.2672 10.5 10.0695 10.5 9.83334C10.5 9.59723 10.58 9.39917 10.74 9.23917C10.8994 9.07973 11.0972 9.00001 11.3333 9.00001C11.5694 9.00001 11.7672 9.07973 11.9267 9.23917C12.0867 9.39917 12.1667 9.59723 12.1667 9.83334C12.1667 10.0695 12.0867 10.2672 11.9267 10.4267C11.7672 10.5867 11.5694 10.6667 11.3333 10.6667ZM8 14C7.76389 14 7.56611 13.92 7.40667 13.76C7.24667 13.6006 7.16667 13.4028 7.16667 13.1667C7.16667 12.9306 7.24667 12.7328 7.40667 12.5733C7.56611 12.4133 7.76389 12.3333 8 12.3333C8.23611 12.3333 8.43417 12.4133 8.59417 12.5733C8.75361 12.7328 8.83333 12.9306 8.83333 13.1667C8.83333 13.4028 8.75361 13.6006 8.59417 13.76C8.43417 13.92 8.23611 14 8 14ZM4.66667 14C4.43056 14 4.2325 13.92 4.0725 13.76C3.91306 13.6006 3.83333 13.4028 3.83333 13.1667C3.83333 12.9306 3.91306 12.7328 4.0725 12.5733C4.2325 12.4133 4.43056 12.3333 4.66667 12.3333C4.90278 12.3333 5.10083 12.4133 5.26083 12.5733C5.42028 12.7328 5.5 12.9306 5.5 13.1667C5.5 13.4028 5.42028 13.6006 5.26083 13.76C5.10083 13.92 4.90278 14 4.66667 14ZM11.3333 14C11.0972 14 10.8994 13.92 10.74 13.76C10.58 13.6006 10.5 13.4028 10.5 13.1667C10.5 12.9306 10.58 12.7328 10.74 12.5733C10.8994 12.4133 11.0972 12.3333 11.3333 12.3333C11.5694 12.3333 11.7672 12.4133 11.9267 12.5733C12.0867 12.7328 12.1667 12.9306 12.1667 13.1667C12.1667 13.4028 12.0867 13.6006 11.9267 13.76C11.7672 13.92 11.5694 14 11.3333 14Z" fill="#051922"/>
  </svg>
  