<svg width="16" height="16" viewBox="0 0 16 16" fill="none" xmlns="http://www.w3.org/2000/svg">
  <path d="M3 16C2.45 16 1.97933 15.8261 1.588 15.4782C1.196 15.1298 1 14.7111 1 14.2222V2.66667C0.716667 2.66667 0.479 2.58163 0.287 2.41156C0.0956668 2.24089 0 2.02963 0 1.77778C0 1.52593 0.0956668 1.31467 0.287 1.144C0.479 0.973926 0.716667 0.888889 1 0.888889H5C5 0.637037 5.096 0.425778 5.288 0.255111C5.47933 0.085037 5.71667 0 6 0H10C10.2833 0 10.521 0.085037 10.713 0.255111C10.9043 0.425778 11 0.637037 11 0.888889H15C15.2833 0.888889 15.5207 0.973926 15.712 1.144C15.904 1.31467 16 1.52593 16 1.77778C16 2.02963 15.904 2.24089 15.712 2.41156C15.5207 2.58163 15.2833 2.66667 15 2.66667V14.2222C15 14.7111 14.8043 15.1298 14.413 15.4782C14.021 15.8261 13.55 16 13 16H3ZM3 2.66667V14.2222H13V2.66667H3ZM5 11.5556C5 11.8074 5.096 12.0184 5.288 12.1884C5.47933 12.3591 5.71667 12.4444 6 12.4444C6.28333 12.4444 6.521 12.3591 6.713 12.1884C6.90433 12.0184 7 11.8074 7 11.5556V5.33333C7 5.08148 6.90433 4.87022 6.713 4.69956C6.521 4.52948 6.28333 4.44444 6 4.44444C5.71667 4.44444 5.47933 4.52948 5.288 4.69956C5.096 4.87022 5 5.08148 5 5.33333V11.5556ZM9 11.5556C9 11.8074 9.096 12.0184 9.288 12.1884C9.47933 12.3591 9.71667 12.4444 10 12.4444C10.2833 12.4444 10.521 12.3591 10.713 12.1884C10.9043 12.0184 11 11.8074 11 11.5556V5.33333C11 5.08148 10.9043 4.87022 10.713 4.69956C10.521 4.52948 10.2833 4.44444 10 4.44444C9.71667 4.44444 9.47933 4.52948 9.288 4.69956C9.096 4.87022 9 5.08148 9 5.33333V11.5556Z" fill="#EB5757"/>
  </svg>
  