<svg width="16" height="16" viewBox="0 0 16 16" fill="none" xmlns="http://www.w3.org/2000/svg">
  <path d="M6.4 8.8H0.8C0.587827 8.8 0.384344 8.88429 0.234315 9.03432C0.0842854 9.18434 0 9.38783 0 9.6V15.2C0 15.4122 0.0842854 15.6157 0.234315 15.7657C0.384344 15.9157 0.587827 16 0.8 16H6.4C6.61217 16 6.81566 15.9157 6.96569 15.7657C7.11571 15.6157 7.2 15.4122 7.2 15.2V9.6C7.2 9.38783 7.11571 9.18434 6.96569 9.03432C6.81566 8.88429 6.61217 8.8 6.4 8.8ZM5.6 14.4H1.6V10.4H5.6V14.4ZM15.2 0H9.6C9.38783 0 9.18434 0.0842854 9.03432 0.234315C8.88429 0.384344 8.8 0.587827 8.8 0.8V6.4C8.8 6.61217 8.88429 6.81566 9.03432 6.96569C9.18434 7.11571 9.38783 7.2 9.6 7.2H15.2C15.4122 7.2 15.6157 7.11571 15.7657 6.96569C15.9157 6.81566 16 6.61217 16 6.4V0.8C16 0.587827 15.9157 0.384344 15.7657 0.234315C15.6157 0.0842854 15.4122 0 15.2 0ZM14.4 5.6H10.4V1.6H14.4V5.6ZM15.2 8.8H9.6C9.38783 8.8 9.18434 8.88429 9.03432 9.03432C8.88429 9.18434 8.8 9.38783 8.8 9.6V15.2C8.8 15.4122 8.88429 15.6157 9.03432 15.7657C9.18434 15.9157 9.38783 16 9.6 16H15.2C15.4122 16 15.6157 15.9157 15.7657 15.7657C15.9157 15.6157 16 15.4122 16 15.2V9.6C16 9.38783 15.9157 9.18434 15.7657 9.03432C15.6157 8.88429 15.4122 8.8 15.2 8.8ZM14.4 14.4H10.4V10.4H14.4V14.4ZM6.4 0H0.8C0.587827 0 0.384344 0.0842854 0.234315 0.234315C0.0842854 0.384344 0 0.587827 0 0.8V6.4C0 6.61217 0.0842854 6.81566 0.234315 6.96569C0.384344 7.11571 0.587827 7.2 0.8 7.2H6.4C6.61217 7.2 6.81566 7.11571 6.96569 6.96569C7.11571 6.81566 7.2 6.61217 7.2 6.4V0.8C7.2 0.587827 7.11571 0.384344 6.96569 0.234315C6.81566 0.0842854 6.61217 0 6.4 0ZM5.6 5.6H1.6V1.6H5.6V5.6Z" fill="white"/>
  </svg>
  