<svg width="11" height="14" viewBox="0 0 11 14" fill="none" xmlns="http://www.w3.org/2000/svg">
  <path d="M0 14V0H5.5C6.63333 0 7.625 0.341667 8.475 1.025C9.325 1.70833 9.75 2.58333 9.75 3.65C9.75 4.28333 9.58333 4.87067 9.25 5.412C8.91667 5.954 8.46667 6.36667 7.9 6.65V6.85C8.6 7.08333 9.16667 7.49567 9.6 8.087C10.0333 8.679 10.25 9.35 10.25 10.1C10.25 11.25 9.78767 12.1877 8.863 12.913C7.93767 13.6377 6.86667 14 5.65 14H0ZM2.65 5.7H5.3C5.8 5.7 6.24167 5.54167 6.625 5.225C7.00833 4.90833 7.2 4.50833 7.2 4.025C7.2 3.54167 7.00833 3.14167 6.625 2.825C6.24167 2.50833 5.8 2.35 5.3 2.35H2.65V5.7ZM2.65 11.6H5.5C6.06667 11.6 6.55833 11.429 6.975 11.087C7.39167 10.7457 7.6 10.3083 7.6 9.775C7.6 9.24167 7.39167 8.804 6.975 8.462C6.55833 8.12067 6.06667 7.95 5.5 7.95H2.65V11.6Z" fill="#051922"/>
  </svg>
  