<svg width="11" height="14" viewBox="0 0 11 14" fill="none" xmlns="http://www.w3.org/2000/svg">
  <path d="M0 14V12.4444H10.8889V14H0ZM5.44444 10.8889C4.13519 10.8889 3.02996 10.4383 2.12878 9.53711C1.22811 8.63645 0.777778 7.53148 0.777778 6.22222V0H2.72222V6.22222C2.72222 6.98704 2.98459 7.63207 3.50933 8.15733C4.03459 8.68207 4.67963 8.94444 5.44444 8.94444C6.20926 8.94444 6.8543 8.68207 7.37956 8.15733C7.9043 7.63207 8.16667 6.98704 8.16667 6.22222V0H10.1111V6.22222C10.1111 7.53148 9.66052 8.63645 8.75933 9.53711C7.85867 10.4383 6.7537 10.8889 5.44444 10.8889Z" fill="#051922"/>
  </svg>
  