<svg width="12" height="12" viewBox="0 0 12 12" fill="none" xmlns="http://www.w3.org/2000/svg">
  <path d="M2.72727 6.54545H0.545455C0.400791 6.54545 0.262052 6.60292 0.15976 6.70521C0.0574673 6.80751 0 6.94625 0 7.09091V11.4545C0 11.5992 0.0574673 11.7379 0.15976 11.8402C0.262052 11.9425 0.400791 12 0.545455 12H2.72727C2.87194 12 3.01067 11.9425 3.11297 11.8402C3.21526 11.7379 3.27273 11.5992 3.27273 11.4545V7.09091C3.27273 6.94625 3.21526 6.80751 3.11297 6.70521C3.01067 6.60292 2.87194 6.54545 2.72727 6.54545ZM2.18182 10.9091H1.09091V7.63636H2.18182V10.9091ZM11.4545 4.36364H9.27273C9.12806 4.36364 8.98933 4.4211 8.88703 4.5234C8.78474 4.62569 8.72727 4.76443 8.72727 4.90909V11.4545C8.72727 11.5992 8.78474 11.7379 8.88703 11.8402C8.98933 11.9425 9.12806 12 9.27273 12H11.4545C11.5992 12 11.7379 11.9425 11.8402 11.8402C11.9425 11.7379 12 11.5992 12 11.4545V4.90909C12 4.76443 11.9425 4.62569 11.8402 4.5234C11.7379 4.4211 11.5992 4.36364 11.4545 4.36364ZM10.9091 10.9091H9.81818V5.45455H10.9091V10.9091ZM7.09091 0H4.90909C4.76443 0 4.62569 0.0574673 4.5234 0.15976C4.4211 0.262052 4.36364 0.400791 4.36364 0.545455V11.4545C4.36364 11.5992 4.4211 11.7379 4.5234 11.8402C4.62569 11.9425 4.76443 12 4.90909 12H7.09091C7.23557 12 7.37431 11.9425 7.4766 11.8402C7.5789 11.7379 7.63636 11.5992 7.63636 11.4545V0.545455C7.63636 0.400791 7.5789 0.262052 7.4766 0.15976C7.37431 0.0574673 7.23557 0 7.09091 0ZM6.54545 10.9091H5.45455V1.09091H6.54545V10.9091Z" fill="black"/>
  </svg>
  