<svg width="18" height="20" viewBox="0 0 18 20" fill="none" xmlns="http://www.w3.org/2000/svg">
  <path d="M9.71 14.29L9.56 14.17C9.50426 14.1322 9.44372 14.1019 9.38 14.08L9.2 14C9.03782 13.9661 8.86976 13.973 8.71092 14.0201C8.55208 14.0673 8.40744 14.1531 8.29 14.27C8.20167 14.3672 8.13064 14.4788 8.08 14.6C8.00432 14.7822 7.98423 14.9827 8.02226 15.1763C8.06028 15.3699 8.15472 15.5479 8.2937 15.688C8.43267 15.828 8.60996 15.9238 8.80326 15.9633C8.99656 16.0028 9.19722 15.9843 9.38 15.91C9.49949 15.852 9.61052 15.778 9.71 15.69C9.84876 15.5494 9.94275 15.3708 9.98013 15.1768C10.0175 14.9828 9.99658 14.7821 9.92 14.6C9.87014 14.4844 9.79889 14.3792 9.71 14.29ZM15 0H3C2.20435 0 1.44129 0.316071 0.87868 0.87868C0.316071 1.44129 0 2.20435 0 3V17C0 17.7956 0.316071 18.5587 0.87868 19.1213C1.44129 19.6839 2.20435 20 3 20H15C15.7956 20 16.5587 19.6839 17.1213 19.1213C17.6839 18.5587 18 17.7956 18 17V3C18 2.20435 17.6839 1.44129 17.1213 0.87868C16.5587 0.316071 15.7956 0 15 0ZM16 17C16 17.2652 15.8946 17.5196 15.7071 17.7071C15.5196 17.8946 15.2652 18 15 18H3C2.73478 18 2.48043 17.8946 2.29289 17.7071C2.10536 17.5196 2 17.2652 2 17V3C2 2.73478 2.10536 2.48043 2.29289 2.29289C2.48043 2.10536 2.73478 2 3 2H15C15.2652 2 15.5196 2.10536 15.7071 2.29289C15.8946 2.48043 16 2.73478 16 3V17Z" fill="#BBBABE"/>
  </svg>
  