<svg width="16" height="16" viewBox="0 0 16 16" fill="none" xmlns="http://www.w3.org/2000/svg">
  <mask id="mask0_1075_14648" style="mask-type:alpha" maskUnits="userSpaceOnUse" x="0" y="0" width="16" height="16">
  <rect width="16" height="16" fill="#D9D9D9"/>
  </mask>
  <g mask="url(#mask0_1075_14648)">
  <path d="M7.24996 12.8667L2.84996 8.46668C2.78329 8.40001 2.73596 8.32779 2.70796 8.25001C2.6804 8.17224 2.66663 8.0889 2.66663 8.00001C2.66663 7.91113 2.6804 7.82779 2.70796 7.75001C2.73596 7.67224 2.78329 7.60001 2.84996 7.53335L7.24996 3.13335C7.37218 3.01113 7.52485 2.94713 7.70796 2.94135C7.89152 2.93601 8.04996 3.00001 8.18329 3.13335C8.31663 3.25557 8.38618 3.40824 8.39196 3.59135C8.39729 3.7749 8.33329 3.93335 8.19996 4.06668L4.93329 7.33335H12.3833C12.5722 7.33335 12.7306 7.39713 12.8586 7.52468C12.9862 7.65268 13.05 7.81113 13.05 8.00001C13.05 8.1889 12.9862 8.34713 12.8586 8.47468C12.7306 8.60268 12.5722 8.66668 12.3833 8.66668H4.93329L8.19996 11.9333C8.32218 12.0556 8.38618 12.2111 8.39196 12.4C8.39729 12.5889 8.33329 12.7445 8.19996 12.8667C8.07774 13 7.92218 13.0667 7.73329 13.0667C7.5444 13.0667 7.38329 13 7.24996 12.8667Z" fill="#6D7175"/>
  </g>
  </svg>
  