<svg width="17" height="15" viewBox="0 0 17 15" fill="none" xmlns="http://www.w3.org/2000/svg">
  <path d="M0.428802 6.00155L8.0752 10.4195C8.20436 10.494 8.35086 10.5333 8.5 10.5333C8.64914 10.5333 8.79564 10.494 8.9248 10.4195L16.5712 6.00155C16.6999 5.92687 16.8068 5.81967 16.8811 5.69069C16.9554 5.56172 16.9945 5.41549 16.9945 5.26665C16.9945 5.11781 16.9554 4.97158 16.8811 4.8426C16.8068 4.71362 16.6999 4.60643 16.5712 4.53174L8.9248 0.113825C8.79564 0.039257 8.64914 0 8.5 0C8.35086 0 8.20436 0.039257 8.0752 0.113825L0.428802 4.53174C0.300054 4.60643 0.193186 4.71362 0.118898 4.8426C0.044609 4.97158 0.00550728 5.11781 0.00550728 5.26665C0.00550728 5.41549 0.044609 5.56172 0.118898 5.69069C0.193186 5.81967 0.300054 5.92687 0.428802 6.00155ZM8.5 1.83002L14.4472 5.22842L8.5 8.66929L2.5528 5.2624L8.5 1.83002ZM15.7216 8.4484L8.5 12.6199L1.2784 8.4484C1.18194 8.39187 1.07527 8.35494 0.964508 8.33972C0.853745 8.3245 0.741068 8.3313 0.632935 8.35971C0.524803 8.38812 0.423342 8.4376 0.334369 8.50531C0.245397 8.57301 0.170662 8.65761 0.11445 8.75426C0.0582752 8.85122 0.0218391 8.95835 0.00724019 9.06946C-0.00735876 9.18056 0.000167815 9.29347 0.0293865 9.40165C0.0586052 9.50984 0.108939 9.61118 0.177488 9.69983C0.246038 9.78849 0.331448 9.8627 0.428802 9.91821L8.0752 14.3361C8.20436 14.4107 8.35086 14.45 8.5 14.45C8.64914 14.45 8.79564 14.4107 8.9248 14.3361L16.5712 9.91821C16.6686 9.8627 16.754 9.78849 16.8225 9.69983C16.8911 9.61118 16.9414 9.50984 16.9706 9.40165C16.9998 9.29347 17.0074 9.18056 16.9928 9.06946C16.9782 8.95835 16.9417 8.85122 16.8856 8.75426C16.8293 8.65761 16.7546 8.57301 16.6656 8.50531C16.5767 8.4376 16.4752 8.38812 16.3671 8.35971C16.2589 8.3313 16.1463 8.3245 16.0355 8.33972C15.9247 8.35494 15.8181 8.39187 15.7216 8.4484Z" fill="#051922"/>
  </svg>
  